<?xml version="1.0" encoding="UTF-8" standalone="no"?>
<!-- Created with Inkscape (http://www.inkscape.org/) -->

<svg
   width="100"
   height="100"
   viewBox="0 0 26.458333 26.458334"
   version="1.1"
   id="svg36"
   inkscape:version="1.1.1 (3bf5ae0d25, 2021-09-20)"
   sodipodi:docname="рисунок.svg"
   inkscape:export-filename="C:\Users\Natallia\Desktop\Lab_rab7\рисунок.png"
   inkscape:export-xdpi="96"
   inkscape:export-ydpi="96"
   xmlns:inkscape="http://www.inkscape.org/namespaces/inkscape"
   xmlns:sodipodi="http://sodipodi.sourceforge.net/DTD/sodipodi-0.dtd"
   xmlns="http://www.w3.org/2000/svg"
   xmlns:svg="http://www.w3.org/2000/svg">
  <sodipodi:namedview
     id="namedview38"
     pagecolor="#ffffff"
     bordercolor="#666666"
     borderopacity="1.0"
     inkscape:pageshadow="2"
     inkscape:pageopacity="0.0"
     inkscape:pagecheckerboard="0"
     inkscape:document-units="mm"
     showgrid="false"
     units="px"
     inkscape:zoom="2.6205012"
     inkscape:cx="36.634213"
     inkscape:cy="69.643165"
     inkscape:window-width="1366"
     inkscape:window-height="705"
     inkscape:window-x="-8"
     inkscape:window-y="-8"
     inkscape:window-maximized="1"
     inkscape:current-layer="layer1" />
  <defs
     id="defs33" />
  <g
     inkscape:label="Слой 1"
     inkscape:groupmode="layer"
     id="layer1">
    <rect
       style="fill:#6c8dd5;fill-opacity:1;fill-rule:evenodd;stroke-width:0.263051"
       id="rect21429"
       width="26"
       height="26"
       x="0.34999999"
       y="0.204"
       ry="2.1998608" />
    <g
       id="g21405"
       transform="matrix(1.0785752,0,0,1.0818137,-0.65886896,-0.64199312)">
      <path
         style="fill:#ffffff;fill-opacity:0.987903;stroke:#06276f;stroke-width:0.417751px;stroke-linecap:butt;stroke-linejoin:miter;stroke-opacity:1"
         d="m 16.212924,5.2348108 c 1.476078,2.5518839 2.749559,5.2135262 2.749559,5.2135262 0.569877,1.804052 -0.06663,3.809817 -1.099823,4.939132 -1.572555,1.42686 -3.637136,1.975652 -6.020086,1.811015 C 9.8503492,16.94238 7.8581247,16.164925 6.8644253,14.481962 5.5909454,12.359965 4.7226638,9.6891747 6.1697999,6.7988691 6.8354825,5.3079832 8.1668477,4.8323632 9.46927,4.5213808 c 0.646388,-0.219517 1.678677,0 1.678677,0 1.369956,0.5487924 2.218943,0.1920774 3.06793,-0.1646375 0.800749,-0.1189054 1.42784,0.3384218 1.997047,0.8780675 z"
         id="path900"
         sodipodi:nodetypes="cccccccccc" />
      <path
         style="fill:#b4bfd5;fill-opacity:1;stroke:#b4bfd5;stroke-width:0.102629;stroke-linecap:butt;stroke-linejoin:miter;stroke-miterlimit:4;stroke-dasharray:none;stroke-opacity:1"
         d="m 12.479315,9.6525886 c -0.282193,0.2126581 -0.685582,0.5042044 -1.146405,0.7464444 -0.460821,0.24224 -1.297447,-0.0038 -1.8093724,0.01153 -1.027214,0.03098 -1.5592891,0.970677 -1.5592891,0.970677 -0.3473131,0.786601 -0.2604844,1.655523 -0.086835,2.524444 0.4051984,1.298809 1.7365642,1.63723 3.0389865,2.08541 2.498721,0.841482 4.302818,0.283543 5.759601,-0.68599 1.138414,-1.024413 1.87163,-1.69211 1.591851,-3.814106 -0.308723,-1.198197 -0.906873,-1.134172 -1.620794,-1.042707 0,0 -1.273479,0.06403 -1.476078,-0.603671 z"
         id="path3987"
         sodipodi:nodetypes="csscccccccc" />
      <path
         style="fill:#333333;stroke:#363636;stroke-width:0.15789;stroke-linecap:butt;stroke-linejoin:miter;stroke-miterlimit:4;stroke-dasharray:none;stroke-opacity:1"
         d="m 13.897506,9.0763578 c -2.691673,-0.631116 -1.244537,1.5366182 -1.244537,1.5366182 0.376256,0.493913 1.562908,0.576232 1.562908,0.576232 0.387744,-0.159402 0.630536,-0.34692 0.897224,-0.658551 0.666983,-1.2433845 -0.09658,-1.5884475 -1.215595,-1.4542992"
         id="path6885"
         sodipodi:nodetypes="ccccc" />
      <ellipse
         style="fill:#ffffff;stroke:#fdfdfd;stroke-width:0.188807;stroke-miterlimit:4;stroke-dasharray:none;stroke-opacity:1"
         id="path8106"
         cx="14.389532"
         cy="9.6663094"
         rx="0.47615078"
         ry="0.32794359" />
      <path
         style="fill:none;stroke:#383838;stroke-width:0.417751px;stroke-linecap:butt;stroke-linejoin:miter;stroke-opacity:1"
         d="m 13.84982,11.148049 0.02895,2.689081 0.02895,0.109752"
         id="path8761" />
      <path
         style="fill:none;stroke:#383838;stroke-width:0.418409;stroke-linecap:round;stroke-linejoin:miter;stroke-miterlimit:4;stroke-dasharray:none;stroke-opacity:1"
         d="m 13.878765,13.83713 c -1.465007,1.038133 -2.828717,0.498487 -3.613571,-0.384153"
         id="path10125"
         sodipodi:nodetypes="cc" />
      <path
         style="fill:none;stroke:#383838;stroke-width:0.398713;stroke-linecap:round;stroke-linejoin:miter;stroke-miterlimit:4;stroke-dasharray:none;stroke-opacity:1"
         d="m 17.097257,13.108144 c -1.308938,1.509801 -2.527368,1.384606 -3.22861,0.731151"
         id="path10571"
         sodipodi:nodetypes="cc" />
      <ellipse
         style="fill:#333333;stroke:#383838;stroke-width:0.236554;stroke-linecap:round;stroke-miterlimit:4;stroke-dasharray:none;stroke-opacity:1"
         id="path10604"
         cx="11.094683"
         cy="12.442091"
         rx="0.069061153"
         ry="0.06547454" />
      <ellipse
         style="fill:#333333;stroke:#383838;stroke-width:0.236554;stroke-linecap:round;stroke-miterlimit:4;stroke-dasharray:none;stroke-opacity:1"
         id="path10604-9"
         cx="11.91493"
         cy="11.875198"
         rx="0.069061153"
         ry="0.06547454" />
      <ellipse
         style="fill:#333333;stroke:#383838;stroke-width:0.236554;stroke-linecap:round;stroke-miterlimit:4;stroke-dasharray:none;stroke-opacity:1"
         id="path10604-6"
         cx="12.305656"
         cy="12.739546"
         rx="0.069061153"
         ry="0.06547454" />
      <ellipse
         style="fill:#333333;stroke:#383838;stroke-width:0.236554;stroke-linecap:round;stroke-miterlimit:4;stroke-dasharray:none;stroke-opacity:1"
         id="path10604-69"
         cx="15.08416"
         cy="11.738"
         rx="0.069061153"
         ry="0.06547454" />
      <ellipse
         style="fill:#333333;stroke:#383838;stroke-width:0.236554;stroke-linecap:round;stroke-miterlimit:4;stroke-dasharray:none;stroke-opacity:1"
         id="path10604-7"
         cx="15.09863"
         cy="12.670946"
         rx="0.069061153"
         ry="0.06547454" />
      <ellipse
         style="fill:#333333;stroke:#383838;stroke-width:0.236554;stroke-linecap:round;stroke-miterlimit:4;stroke-dasharray:none;stroke-opacity:1"
         id="path10604-1"
         cx="16.140568"
         cy="12.177033"
         rx="0.069061153"
         ry="0.06547454" />
      <ellipse
         style="fill:#333333;stroke:#383838;stroke-width:1.24233;stroke-linecap:round;stroke-miterlimit:4;stroke-dasharray:none;stroke-opacity:1"
         id="circle10898"
         cx="10.511209"
         cy="8.1296911"
         rx="0.3774524"
         ry="0.33041027" />
      <ellipse
         style="fill:#ffffff;stroke:#fdfdfd;stroke-width:0.160868;stroke-miterlimit:4;stroke-dasharray:none;stroke-opacity:1"
         id="ellipse10900"
         cx="10.337551"
         cy="7.8141356"
         rx="0.34578407"
         ry="0.32782558" />
      <ellipse
         style="fill:#333333;stroke:#383838;stroke-width:1.24233;stroke-linecap:round;stroke-miterlimit:4;stroke-dasharray:none;stroke-opacity:1"
         id="ellipse10902"
         cx="15.807726"
         cy="7.8004155"
         rx="0.3774524"
         ry="0.33041027" />
      <ellipse
         style="fill:#ffffff;stroke:#fdfdfd;stroke-width:0.160868;stroke-miterlimit:4;stroke-dasharray:none;stroke-opacity:1"
         id="ellipse10904"
         cx="15.634068"
         cy="7.4848599"
         rx="0.34578407"
         ry="0.32782558" />
      <path
         style="fill:#06276f;fill-opacity:1;stroke:#06276f;stroke-width:0.102629;stroke-linecap:butt;stroke-linejoin:miter;stroke-miterlimit:4;stroke-dasharray:none;stroke-opacity:1"
         d="M 7.8774198,4.6036998 C 7.7230591,3.7805114 7.3950411,2.7103665 6.777597,1.9969364 c 0,0 -0.8393388,-0.8780677 -1.5629069,-0.4115944 C 4.1631046,2.1524274 3.4009463,3.0213485 2.7835016,4.0000282 1.9634577,5.1159059 1.346013,6.2317835 1.3653081,7.6769365 1.5872023,8.783668 2.4168935,9.9452785 3.4202412,10.256261 4.0666287,9.8903994 4.3946462,8.8934261 4.6647782,8.0062124 L 5.7356592,4.1372265 5.9961437,2.6280473 C 6.3338088,4.1189331 6.034734,5.3903021 5.7067166,6.7714294 6.3145134,5.5275002 7.0091384,5.0793198 7.8774198,4.6036998 Z"
         id="path11007"
         sodipodi:nodetypes="ccccccccccc" />
      <path
         style="fill:#06276f;fill-opacity:1;stroke:#06276f;stroke-width:0.102629;stroke-linecap:butt;stroke-linejoin:miter;stroke-miterlimit:4;stroke-dasharray:none;stroke-opacity:1"
         d="M 7.8774198,4.6036998 C 7.7230591,3.7805114 7.3950411,2.7103665 6.777597,1.9969364 c 0,0 -0.8393388,-0.8780677 -1.5629069,-0.4115944 C 4.1631046,2.1524274 3.4009463,3.0213485 2.7835016,4.0000282 1.9634577,5.1159059 1.346013,6.2317835 1.3653081,7.6769365 1.5872023,8.783668 2.4168935,9.9452785 3.4202412,10.256261 4.0666287,9.8903994 4.3946462,8.8934261 4.6647782,8.0062124 L 5.7356592,4.1372265 5.9961437,2.6280473 C 6.3338088,4.1189331 6.034734,5.3903021 5.7067166,6.7714294 6.3145134,5.5275002 7.0091384,5.0793198 7.8774198,4.6036998 Z"
         id="path15152"
         sodipodi:nodetypes="ccccccccccc" />
      <path
         style="fill:#06276f;fill-opacity:1;stroke:#06276f;stroke-width:0.102629;stroke-linecap:butt;stroke-linejoin:miter;stroke-miterlimit:4;stroke-dasharray:none;stroke-opacity:1"
         d="m 15.581398,4.3018641 c 0.154358,-0.8231884 0.482379,-1.8933334 1.099823,-2.6067634 0,0 0.839339,-0.87806777 1.562907,-0.4115944 1.051586,0.5670854 1.813744,1.4360065 2.431189,2.4146862 0.820043,1.1158776 1.437488,2.2317553 1.418193,3.6769079 -0.221895,1.106732 -1.051585,2.2683425 -2.054933,2.5793253 C 19.39219,9.5885639 19.064172,8.5915905 18.79404,7.7043768 L 17.723159,3.8353908 17.462675,2.3262115 c -0.312067,1.4949309 0.317314,3.1523407 0.260484,4.4726576 -0.607798,-1.2439293 -1.273479,-2.021385 -2.141761,-2.497005 z"
         id="path15234"
         sodipodi:nodetypes="ccccccccccc" />
      <path
         style="fill:#ffbe40;fill-opacity:1;stroke:#a66e00;stroke-width:0.307393px;stroke-linecap:butt;stroke-linejoin:miter;stroke-opacity:1"
         d="m 19.529151,16.053452 c -1.513246,0.99918 -2.544892,1.417103 -4.120275,1.876544 -2.222374,0.50731 -4.149568,0.807036 -6.1078377,0.234864 -0.782488,-0.882567 -2.4505057,-1.64058 -3.559243,-0.156575 -0.5557262,0.971886 -0.6143154,2.096012 -0.1757639,2.583514 0.4290066,0.490516 0.7454665,0.429592 1.0985301,0.548022 -0.668461,0.331333 -0.9174605,0.842585 -0.7470006,1.409191 0.2733944,1.180678 0.9196438,1.710899 1.8455338,1.839774 1.9095061,0.108783 2.4363423,-1.360165 2.3417603,-2.040242 1.632473,-0.711721 3.389235,-1.409605 5.379029,-1.692292 1.642408,-0.255037 3.036242,-0.440875 4.538827,-0.377608 1.310259,1.088961 1.890362,1.0846 2.812241,0.900319 0.988532,-0.391526 1.464062,-1.023139 1.450061,-2.074643 -0.0355,-0.523501 -0.211097,-1.185406 -0.945844,-1.528995 0.353611,-0.341354 0.427583,-0.834942 0.548165,-1.39773 0.0034,-0.613256 -0.226792,-1.2542 -0.891692,-1.853617 -0.668148,-0.486654 -1.753295,-0.548911 -2.631603,0.08539 -0.52687,0.492663 -0.820695,0.943807 -0.834888,1.644069 z"
         id="path16273"
         sodipodi:nodetypes="cccccccccccccccccc" />
    </g>
  </g>
</svg>
